<svg height="512pt" viewBox="-75 0 512 512" width="512pt" xmlns="http://www.w3.org/2000/svg"><path d="m181.332031 12.800781c-94.996093 0-172.265625 77.289063-172.265625 172.265625 0 166.527344 158.871094 305.8125 165.632813 311.660156 1.917969 1.640626 4.265625 2.472657 6.632812 2.472657 2.371094 0 4.714844-.832031 6.636719-2.472657 6.761719-5.847656 165.632812-145.132812 165.632812-311.660156 0-94.976562-77.269531-172.265625-172.269531-172.265625zm0 0" fill="#2196f3"/><path d="m117.332031 256c-5.886719 0-10.664062-4.777344-10.664062-10.667969v-21.332031c0-5.886719 4.777343-10.667969 10.664062-10.667969 5.890625 0 10.667969 4.78125 10.667969 10.667969v21.332031c0 5.890625-4.777344 10.667969-10.667969 10.667969zm0 0" fill="#fafafa"/><path d="m245.332031 256c-5.886719 0-10.664062-4.777344-10.664062-10.667969v-21.332031c0-5.886719 4.777343-10.667969 10.664062-10.667969 5.890625 0 10.667969 4.78125 10.667969 10.667969v21.332031c0 5.890625-4.777344 10.667969-10.667969 10.667969zm0 0" fill="#fafafa"/><path d="m245.332031 160h-128l16.429688-49.492188c2.984375-8.535156 11.089843-14.507812 20.265625-14.507812h54.613281c9.171875 0 17.28125 5.972656 20.265625 14.507812zm0 0" fill="#2196f3"/><path d="m271.445312 161.128906-21.332031-10.664062c-1.496093-.726563-3.117187-1.132813-4.78125-1.132813h-128c-1.664062 0-3.285156.40625-4.777343 1.132813l-21.332032 10.664062c-3.605468 1.816406-5.890625 5.503906-5.890625 9.539063v32c0 17.640625 14.359375 32 32 32h128c17.644531 0 32-14.359375 32-32v-32c0-4.035157-2.28125-7.722657-5.886719-9.539063zm0 0" fill="#fafafa"/><path d="m245.332031 234.667969h-128c-17.640625 0-32-14.359375-32-32v-32c0-4.035157 2.285157-7.722657 5.890625-9.539063l17.386719-8.679687 15.082031-45.226563c4.351563-13.101562 16.554688-21.890625 30.355469-21.890625h54.59375c13.78125 0 25.984375 8.789063 30.355469 21.867188l15.082031 45.226562 17.386719 8.683594c3.585937 1.835937 5.867187 5.523437 5.867187 9.558594v32c0 17.640625-14.355469 32-32 32zm-138.664062-57.410157v25.410157c0 5.886719 4.777343 10.664062 10.664062 10.664062h128c5.890625 0 10.667969-4.777343 10.667969-10.664062v-25.410157l-15.445312-7.722656c-2.539063-1.277344-4.457032-3.496094-5.332032-6.164062l-16.46875-49.410156c-1.453125-4.371094-5.527344-7.292969-10.136718-7.292969h-54.589844c-4.585938 0-8.660156 2.921875-10.132813 7.292969l-16.449219 49.410156c-.894531 2.667968-2.816406 4.886718-5.332031 6.164062zm10.664062-17.257812h.214844zm0 0"/><path d="m245.332031 170.667969h-128c-5.886719 0-10.664062-4.78125-10.664062-10.667969s4.777343-10.667969 10.664062-10.667969h128c5.890625 0 10.667969 4.78125 10.667969 10.667969s-4.777344 10.667969-10.667969 10.667969zm0 0"/><path d="m117.332031 256c-5.886719 0-10.664062-4.777344-10.664062-10.667969v-21.332031c0-5.886719 4.777343-10.667969 10.664062-10.667969 5.890625 0 10.667969 4.78125 10.667969 10.667969v21.332031c0 5.890625-4.777344 10.667969-10.667969 10.667969zm0 0"/><path d="m245.332031 256c-5.886719 0-10.664062-4.777344-10.664062-10.667969v-21.332031c0-5.886719 4.777343-10.667969 10.664062-10.667969 5.890625 0 10.667969 4.78125 10.667969 10.667969v21.332031c0 5.890625-4.777344 10.667969-10.667969 10.667969zm0 0"/><path d="m138.667969 202.667969h-42.667969c-5.886719 0-10.667969-4.78125-10.667969-10.667969s4.78125-10.667969 10.667969-10.667969h42.667969c5.886719 0 10.664062 4.78125 10.664062 10.667969s-4.777343 10.667969-10.664062 10.667969zm0 0"/><path d="m266.667969 202.667969h-42.667969c-5.886719 0-10.667969-4.78125-10.667969-10.667969s4.78125-10.667969 10.667969-10.667969h42.667969c5.886719 0 10.664062 4.78125 10.664062 10.667969s-4.777343 10.667969-10.664062 10.667969zm0 0"/><path d="m181.332031 512c-2.496093 0-4.96875-.875-6.976562-2.601562-7.125-6.144532-174.355469-152.769532-174.355469-328.066407 0-99.988281 81.34375-181.332031 181.332031-181.332031 99.992188 0 181.335938 81.34375 181.335938 181.332031 0 175.296875-167.234375 321.921875-174.359375 328.066407-2.003906 1.726562-4.480469 2.601562-6.976563 2.601562zm0-490.667969c-88.234375 0-160 71.765625-160 160 0 145.792969 128.363281 275.734375 160 305.539063 31.636719-29.804688 160-159.746094 160-305.539063 0-88.234375-71.765625-160-160-160zm0 0"/></svg>