<svg height="512pt" viewBox="-75 0 512 512" width="512pt" xmlns="http://www.w3.org/2000/svg"><path d="m362.667969 458.667969c0-29.457031-81.1875-53.335938-181.335938-53.335938-100.144531 0-181.332031 23.878907-181.332031 53.335938 0 29.453125 81.1875 53.332031 181.332031 53.332031 100.148438 0 181.335938-23.878906 181.335938-53.332031zm0 0" fill="#2196f3"/><path d="m181.332031 11.199219c-72.640625 0-131.730469 59.09375-131.730469 131.734375 0 5.140625.359376 10.175781.914063 14.804687 4.117187 51.542969 29.589844 77.355469 54.253906 102.316407 32.660157 33.085937 66.429688 67.304687 66.429688 166.589843 0 5.613281 4.523437 10.132813 10.132812 10.132813 5.613281 0 10.132813-4.519532 10.132813-10.132813 0-99.285156 33.792968-133.503906 66.433594-166.589843 24.617187-24.941407 50.070312-50.730469 54.25-102.144532.554687-4.929687.917968-9.921875.917968-15 0-72.617187-59.09375-131.710937-131.734375-131.710937zm0 202.667969c-39.101562 0-70.933593-31.828126-70.933593-70.933594 0-39.105469 31.832031-70.933594 70.933593-70.933594 39.105469 0 70.933594 31.828125 70.933594 70.933594 0 39.105468-31.828125 70.933594-70.933594 70.933594zm0 0" fill="#ffc107"/><path d="m181.332031 512c-62.71875 0-181.332031-11.136719-181.332031-53.332031 0-39.320313 103.339844-49.515625 134.996094-51.734375 5.695312-.578125 10.964844 4.011718 11.371094 9.917968.40625 5.867188-4.011719 10.96875-9.917969 11.371094-80.875 5.613282-115.117188 24.042969-115.117188 30.445313 0 9.300781 56.066407 32 160 32 103.9375 0 160-22.699219 160-32 0-6.402344-34.238281-24.832031-115.113281-30.445313-5.886719-.425781-10.304688-5.503906-9.921875-11.371094.429687-5.863281 5.546875-10.429687 11.371094-9.917968 31.660156 2.21875 135 12.414062 135 51.734375 0 42.195312-118.613281 53.332031-181.335938 53.332031zm0 0"/><path d="m181.332031 213.332031c-41.171875 0-74.664062-33.492187-74.664062-74.664062 0-41.175781 33.492187-74.667969 74.664062-74.667969 41.175781 0 74.667969 33.492188 74.667969 74.667969 0 41.171875-33.492188 74.664062-74.667969 74.664062zm0-128c-29.417969 0-53.332031 23.9375-53.332031 53.335938 0 29.394531 23.914062 53.332031 53.332031 53.332031 29.421875 0 53.335938-23.9375 53.335938-53.332031 0-29.398438-23.914063-53.335938-53.335938-53.335938zm0 0"/><path d="m181.332031 448c-5.886719 0-10.664062-4.777344-10.664062-10.667969 0-104.511719-35.5625-140.542969-69.933594-175.359375-25.960937-26.28125-52.777344-53.460937-57.109375-107.710937-.574219-4.886719-.957031-10.199219-.957031-15.59375 0-76.460938 62.207031-138.667969 138.664062-138.667969 76.460938 0 138.667969 62.207031 138.667969 138.667969 0 5.332031-.382812 10.601562-.960938 15.785156-4.394531 54.121094-31.1875 81.28125-57.109374 107.519531-34.367188 34.816406-69.929688 70.847656-69.929688 175.359375 0 5.890625-4.777344 10.667969-10.667969 10.667969zm0-426.667969c-64.679687 0-117.332031 52.628907-117.332031 117.335938 0 4.5625.339844 9.066406.851562 13.503906 3.757813 46.867187 25.664063 69.074219 51.074219 94.804687 24.40625 24.726563 51.050781 51.710938 65.40625 102.570313 14.378907-50.859375 41.023438-77.84375 65.410157-102.570313 25.386718-25.730468 47.316406-47.9375 51.050781-94.421874 0-.128907.019531-.257813.019531-.382813.511719-4.4375.855469-8.941406.855469-13.503906 0-64.707031-52.652344-117.335938-117.335938-117.335938zm0 0"/></svg>