<?xml version="1.0" encoding="iso-8859-1"?>
<!-- Generator: Adobe Illustrator 19.0.0, SVG Export Plug-In . SVG Version: 6.00 Build 0)  -->
<svg xmlns="http://www.w3.org/2000/svg" xmlns:xlink="http://www.w3.org/1999/xlink" version="1.1" id="Layer_1" x="0px" y="0px" viewBox="0 0 512.05 512.05" style="enable-background:new 0 0 512.05 512.05;" xml:space="preserve" width="512" height="512">
<g id="XMLID_1315_">
	<g id="XMLID_1756_">
		<path id="XMLID_1901_" style="fill:#FFFFFF;" d="M384.027,70c0-11.046-8.954-20-20-20h-334c-11.046,0-20,8.954-20,20v310    c0,11.046,8.954,20,20,20h332.667c11.782,0,21.333-9.551,21.333-21.333V70z"/>
		<path id="XMLID_2007_" style="fill:#1DD0A8;" d="M364.027,50h-334c-11.046,0-20,8.954-20,20v77h374V70    C384.027,58.954,375.073,50,364.027,50z"/>
		<g id="XMLID_1860_">
			<g id="XMLID_1867_">
				<path id="XMLID_1869_" style="fill:#FFFFFF;" d="M142.091,47V34c0-13.255-10.745-24-24-24h0c-13.255,0-24,10.745-24,24v42.5      c0,13.255,10.745,24,24,24h0c13.255,0,24-10.745,24-24V47z"/>
			</g>
			<g id="XMLID_1864_">
				<path id="XMLID_1866_" style="fill:#FFFFFF;" d="M299.964,47V34c0-13.255-10.745-24-24-24h0c-13.255,0-24,10.745-24,24v42.5      c0,13.255,10.745,24,24,24h0c13.255,0,24-10.745,24-24V47z"/>
			</g>
		</g>
		<g id="XMLID_1085_">
			<circle id="XMLID_1166_" style="fill:#93E7F8;" cx="384.083" cy="384.11" r="118"/>
		</g>
	</g>
	<g id="XMLID_1295_">
		<g id="XMLID_1296_">
			<g id="XMLID_1297_">
				<path id="XMLID_1314_" d="M233.235,305h-24.373v-92.12c0-4.044-2.437-7.691-6.173-9.239c-3.737-1.548-8.038-0.691-10.898,2.167      l-26.144,26.144c-3.905,3.905-3.905,10.237,0,14.143c3.905,3.905,10.237,3.905,14.143,0l9.072-9.073V305h-24.374      c-5.523,0-10,4.477-10,10s4.477,10,10,10h68.747c5.523,0,10-4.477,10-10S238.758,305,233.235,305z"/>
				<path id="XMLID_1313_" d="M226.028,389.995c-2.63,0-5.21,1.07-7.07,2.93c-1.86,1.86-2.93,4.44-2.93,7.08      c0,2.63,1.07,5.2,2.93,7.07c1.86,1.86,4.44,2.92,7.07,2.92c2.63,0,5.21-1.06,7.07-2.92c1.86-1.87,2.93-4.44,2.93-7.07      c0-2.64-1.07-5.22-2.93-7.08C231.238,391.065,228.658,389.995,226.028,389.995z"/>
				<path id="XMLID_1311_" d="M351.207,154.075c1.86-1.87,2.93-4.44,2.93-7.08c0-2.63-1.07-5.2-2.93-7.07      c-1.86-1.86-4.44-2.93-7.07-2.93s-5.21,1.07-7.07,2.93c-1.86,1.86-2.93,4.44-2.93,7.07c0,2.64,1.07,5.22,2.93,7.08      c1.86,1.86,4.44,2.92,7.07,2.92S349.347,155.935,351.207,154.075z"/>
				<path id="XMLID_1303_" d="M474.593,293.601c-22.428-22.428-51.177-34.77-80.565-37.04V70c0-16.542-13.458-30-30-30h-54.063v-6      c0-18.748-15.252-34-34-34s-34,15.252-34,34v6h-89.873v-6c0-18.748-15.252-34-34-34s-34,15.252-34,34v6H30.028      c-16.542,0-30,13.458-30,30v310c0,16.542,13.458,30,30,30h156c5.523,0,10-4.477,10-10s-4.477-10-10-10h-156      c-5.514,0-10-4.486-10-10V157h284.109c5.523,0,10-4.477,10-10s-4.477-10-10-10H20.028V70c0-5.514,4.486-10,10-10h54.063v16.5      c0,18.748,15.252,34,34,34s34-15.252,34-34V60h89.873v16.5c0,18.748,15.252,34,34,34s34-15.252,34-34V60h54.063      c5.514,0,10,4.486,10,10v186.57c-29.35,2.292-58.055,14.631-80.455,37.031c-24.176,24.176-37.49,56.32-37.49,90.51      s13.314,66.333,37.49,90.51c24.954,24.954,57.732,37.43,90.51,37.43c32.778,0,65.556-12.477,90.51-37.43      C524.499,424.713,524.499,343.508,474.593,293.601z M132.091,76.5c0,7.72-6.28,14-14,14s-14-6.28-14-14V34c0-7.72,6.28-14,14-14      s14,6.28,14,14V76.5z M289.964,76.5c0,7.72-6.28,14-14,14s-14-6.28-14-14V34c0-7.72,6.28-14,14-14s14,6.28,14,14V76.5z       M460.45,460.478c-42.108,42.109-110.626,42.11-152.735,0c-42.109-42.109-42.109-110.625,0-152.734      c21.054-21.055,48.711-31.582,76.367-31.582c27.657,0,55.313,10.527,76.368,31.582      C502.559,349.852,502.559,418.369,460.45,460.478z"/>
				<path id="XMLID_1302_" d="M383.988,450.073c-5.523,0-10,4.477-10,10v7.207c0,5.523,4.477,10,10,10s10-4.477,10-10v-7.207      C393.988,454.55,389.511,450.073,383.988,450.073z"/>
				<path id="XMLID_1301_" d="M383.988,318.147c5.523,0,10-4.477,10-10v-7.207c0-5.523-4.477-10-10-10s-10,4.477-10,10v7.207      C373.988,313.67,378.465,318.147,383.988,318.147z"/>
				<path id="XMLID_1300_" d="M308.12,374.015h-7.207c-5.523,0-10,4.477-10,10s4.477,10,10,10h7.207c5.523,0,10-4.477,10-10      S313.643,374.015,308.12,374.015z"/>
				<path id="XMLID_1299_" d="M467.252,374.206h-7.207c-5.523,0-10,4.477-10,10s4.477,10,10,10h7.207c5.523,0,10-4.477,10-10      S472.775,374.206,467.252,374.206z"/>
				<path id="XMLID_1298_" d="M430.032,323.854l-45.867,46.01l-18.405-19.271c-3.813-3.994-10.144-4.141-14.138-0.325      c-3.994,3.814-4.14,10.144-0.325,14.138l25.415,26.61c1.887,1.976,4.5,3.093,7.231,3.093h0.14c2.658,0,5.206-1.058,7.082-2.94      l53.031-53.196c3.899-3.911,3.889-10.243-0.022-14.142C440.263,319.933,433.931,319.942,430.032,323.854z"/>
			</g>
		</g>
	</g>
</g>















</svg>
