<svg height="514pt" viewBox="-22 0 514 514.6002" width="514pt" xmlns="http://www.w3.org/2000/svg"><path d="m338.800781 238.941406c72.335938 6.152344 126.484375 69 121.871094 141.449219-4.613281 72.453125-66.300781 127.921875-138.832031 124.847656-72.535156-3.074219-129.300782-63.570312-127.765625-136.152343 1.535156-72.578126 60.808593-130.621094 133.40625-130.625 3.808593 0 7.589843.160156 11.320312.480468zm57.5 118.390625c.101563-18.457031-6.988281-36.226562-19.769531-49.542969-12.570312-13.066406-29.929688-20.4375-48.058594-20.417968-18.636718.046875-36.445312 7.679687-49.332031 21.140625-27.101563 27.707031-27.339844 72.769531-.738281 100.238281l48.339844 57.71875 49.058593-58.4375c13.199219-13.570312 20.558594-31.769531 20.5-50.699219zm0 0" fill="#fedb41"/><path d="m376.53125 307.789062c12.78125 13.316407 19.871094 31.085938 19.769531 49.542969.058594 18.929688-7.300781 37.128907-20.5 50.699219l-49.058593 58.4375-48.339844-57.71875c-26.601563-27.46875-26.363282-72.53125.738281-100.238281 12.886719-13.460938 30.695313-21.09375 49.332031-21.140625 18.128906-.019532 35.488282 7.351562 48.058594 20.417968zm-14.941406 46.011719c.003906-18.847656-15.273438-34.128906-34.121094-34.128906-18.847656-.003906-34.128906 15.277344-34.128906 34.125.003906 18.847656 15.28125 34.125 34.132812 34.125 18.839844-.003906 34.117188-15.277344 34.117188-34.121094zm0 0" fill="#f4b844"/><path d="m327.472656 319.679688c18.839844.007812 34.113282 15.285156 34.109375 34.128906-.003906 18.839844-15.28125 34.113281-34.125 34.113281-18.84375-.003906-34.117187-15.277344-34.117187-34.121094.003906-18.847656 15.285156-34.125 34.132812-34.121093zm0 0" fill="#fedb41"/><path d="m338.800781 123.71875v115.222656c-3.730469-.320312-7.511719-.480468-11.320312-.480468-18.351563-.023438-36.507813 3.761718-53.320313 11.121093v-2.621093h-77.648437v58.109374h15.710937c-8.386718 14.519532-13.929687 30.503907-16.332031 47.101563h-55.519531c-11.046875 0-20 8.953125-20 20v74.679687h-110.238282v-323.132812l163.839844-113.71875zm-64.640625 73.640625v-58.109375h-77.648437v58.109375zm-122.738281 107.710937v-58.109374h-77.652344v58.109374zm0-107.710937v-58.109375h-77.652344v58.109375zm0 0" fill="#00acea"/><path d="m274.160156 246.960938v2.621093c-26.023437 11.429688-47.722656 30.871094-61.9375 55.488281h-15.710937v-58.109374zm0 0" fill="#00efd1"/><path d="m196.511719 139.25h77.648437v58.109375h-77.648437zm0 0" fill="#00efd1"/><path d="m217.871094 446.75-.148438.101562h-97.351562v-74.679687c0-11.046875 8.953125-20 20-20h55.519531c-4.828125 33.167969 3.019531 66.9375 21.980469 94.578125zm0 0" fill="#00efd1"/><path d="m73.769531 246.960938h77.652344v58.109374h-77.652344zm0 0" fill="#00efd1"/><path d="m73.769531 139.25h77.652344v58.109375h-77.652344zm0 0" fill="#00efd1"/><g fill="#083863"><path d="m161.300781 139.210938c0-5.523438-4.476562-10-10-10h-78c-5.523437 0-10 4.476562-10 10v58c0 5.523437 4.476563 10 10 10h78c5.523438 0 10-4.476563 10-10zm-78 10h58v38h-58zm0 0"/><path d="m284.300781 139.210938c0-5.523438-4.476562-10-10-10h-78c-5.523437 0-10 4.476562-10 10v58c0 5.523437 4.476563 10 10 10h78c5.523438 0 10-4.476563 10-10zm-78 10h58v38h-58zm0 0"/><path d="m161.300781 247.210938c0-5.523438-4.476562-10-10-10h-78c-5.523437 0-10 4.476562-10 10v58c0 5.523437 4.476563 10 10 10h78c5.523438 0 10-4.476563 10-10zm-78 10h58v38h-58zm0 0"/><path d="m348.300781 230.050781v-106.332031c.097657-3.25-1.429687-6.332031-4.070312-8.230469l-164.707031-113.71875c-3.402344-2.363281-7.917969-2.359375-11.316407.015625l-163.722656 113.726563c-2.664063 1.878906-4.226563 4.949219-4.183594 8.207031v323.132812c0 5.523438 4.308594 10.359376 9.832031 10.359376h202.691407c27.050781 36.117187 69.53125 57.382812 114.65625 57.390624 78.84375 0 142.992187-64.230468 142.992187-143.070312-.050781-36.003906-13.6875-70.660156-38.1875-97.042969-21.984375-24.113281-51.679687-39.824219-83.984375-44.4375zm-328-101.097656 153.523438-106.792969 154.476562 106.808594v99.5s-.628906-.011719-1.070312-.011719c-17.078125.011719-34.015625 3.113281-49.988281 9.15625-.996094-.308593-2.039063-.445312-3.082032-.40625h-77.648437c-2.648438-.066406-5.214844.929688-7.128907 2.757813-1.917968 1.828125-3.023437 4.347656-3.082031 6.996094v58.109374c.046875 5.367188 4.28125 9.757813 9.644531 10-3.671874 8.757813-6.496093 17.84375-8.433593 27.140626h-47.140625c-16.566406-.007813-30.015625 13.394531-30.070313 29.960937v65.039063h-90zm180.027344 308.257813h-70.027344v-65.039063c.042969-5.527344 4.542969-9.980469 10.070313-9.960937h44.441406c-.199219 3-.3125 6.335937-.3125 9.429687-.046875 22.808594 5.382812 45.292969 15.828125 65.570313zm6.265625-142h-.292969v-38h35.601563c-14.132813 10.246093-26.125 23.15625-35.308594 38zm120.886719 199.210937c-35.71875-.027344-69.667969-15.570313-93.023438-42.597656-23.355469-27.027344-33.820312-62.867188-28.671875-98.214844 2.214844-15.339844 7.335938-30.121094 15.097656-43.539063 13.183594-22.742187 33.242188-40.714843 57.289063-51.328124 15.542969-6.816407 32.335937-10.316407 49.308594-10.28125 3.511719 0 7.035156.148437 10.464843.441406h.015626c65.652343 5.601562 115.226562 61.949218 112.417968 127.78125-2.8125 65.832031-57.007812 117.75-122.898437 117.738281zm0 0"/><path d="m328.472656 277.371094c-21.335937 0-41.742187 8.726562-56.480468 24.148437-30.761719 31.453125-31.191407 82.476563-1.035157 113.917969l48.117188 57.324219c1.914062 2.230469 4.722656 3.496093 7.660156 3.449219h.007813c2.9375.046874 5.742187-1.210938 7.65625-3.441407l48.824218-58.097656c14.894532-15.375 23.179688-35.96875 23.078125-57.375.132813-21.050781-7.972656-41.324219-22.585937-56.480469-14.4375-15.035156-34.398438-23.503906-55.242188-23.445312zm40.179688 123.667968c-.179688.179688-.347656.367188-.511719.5625l-41.390625 49.308594-40.683594-48.578125c-.152344-.1875-.3125-.367187-.480468-.539062-22.957032-23.707031-22.640626-62.417969.738281-86.324219 10.988281-11.535156 26.214843-18.074219 42.148437-18.101562 15.425782-.03125 30.195313 6.246093 40.875 17.378906 10.992188 11.4375 17.078125 26.71875 16.953125 42.585937.089844 16.320313-6.25 32.023438-17.648437 43.707031zm0 0"/><path d="m327.472656 309.679688c-24.367187 0-44.121094 19.753906-44.121094 44.121093 0 24.367188 19.753907 44.121094 44.121094 44.121094 24.363282 0 44.117188-19.753906 44.117188-44.121094-.027344-24.355469-19.765625-44.089843-44.117188-44.121093zm0 68.242187c-13.324218 0-24.121094-10.800781-24.121094-24.121094 0-13.320312 10.796876-24.121093 24.121094-24.121093 13.320313 0 24.117188 10.800781 24.117188 24.121093-.015625 13.3125-10.804688 24.101563-24.117188 24.121094zm0 0"/></g></svg>